<svg xmlns="http://www.w3.org/2000/svg" viewBox="0 0 24 24" fill="#6e7681">
  <path d="M12 2a10 10 0 1 0 0 20 10 10 0 0 0 0-20Zm6.93 9h-3.05a15.7 15.7 0 0 0-1.38-5.03A8.02 8.02 0 0 1 18.93 11ZM12 4.04c.84 1.08 1.83 3.21 2.28 6.96H9.72C10.17 7.25 11.16 5.12 12 4.04ZM4.07 13h3.05c.14 1.78.62 3.52 1.38 5.03A8.02 8.02 0 0 1 4.07 13Zm3.05-2H4.07a8.02 8.02 0 0 1 4.43-5.03A15.7 15.7 0 0 0 7.12 11Zm1.99 2h5.78c-.15 1.65-.61 3.25-1.3 4.58-.58 1.12-1.17 1.92-1.59 2.38-.42-.46-1.01-1.26-1.59-2.38A12.85 12.85 0 0 1 9.11 13Zm6.39 5.03c.76-1.51 1.24-3.25 1.38-5.03h3.05a8.02 8.02 0 0 1-4.43 5.03Z"/>
</svg>
